# xmcd
# Copyright (C) 1995-1998 Ti Kan
#
# Track frame offsets:
#       183
#       30203
#       49900
#       70405
#       95123
#       123245
#       146093
#       166123
#
# Disc length: 2602 seconds
#
# Revision: 0
# Processed by: cddbd v1.5.2PL0 Copyright (c) Steve Scherf et al.
# Submitted via: CD-Import v1.0
#
DISCID=6a0a2808
DTITLE=Cure - Pornography
DYEAR=1982
DGENRE=
TTITLE0=One Hundred Years
TTITLE1=A Short Term Effect
TTITLE2=The Hanging Garden
TTITLE3=Siamese Twins
TTITLE4=The Figurehead
TTITLE5=A Strange Day
TTITLE6=Cold
TTITLE7=Pornography
EXTD=
EXTT0=
EXTT1=
EXTT2=
EXTT3=
EXTT4=
EXTT5=
EXTT6=
EXTT7=
PLAYORDER=
